<svg width="377" height="395" viewBox="0 0 377 395" fill="none" xmlns="http://www.w3.org/2000/svg">
<g clip-path="url(#clip0_544_911)">
<path d="M110.55 80.9826C112.997 80.9723 115.359 81.191 117.596 81.6353C176.022 100.121 234.382 118.604 292.677 137.083C293.528 137.277 294.416 137.407 295.334 137.471L296.195 138.849L295.544 139.256C294.264 139.411 292.973 139.622 291.678 139.889C270.745 145.146 249.817 150.347 228.902 155.752C207.988 161.157 187.999 166.596 167.445 172.095L166.835 171.119C148.754 142.183 130.673 113.246 112.591 84.3103C112.006 83.1325 111.258 82.0565 110.55 80.9826Z" fill="#1276D2"/>
<path d="M110.55 80.983C111.231 82.0738 111.913 83.1646 112.594 84.2555C130.676 113.192 148.757 142.128 166.838 171.064C166.245 172.042 165.586 173.005 164.867 173.946C140.469 202.55 116.037 231.121 91.573 259.66C88.1781 263.644 84.516 267.502 80.9951 271.406C82.295 261.413 83.3963 251.464 84.9069 241.446C92.5013 189.814 100.149 138.166 107.85 86.5019C108.127 84.6521 108.498 82.7705 108.83 80.8868L109.481 80.4799L110.55 80.983Z" fill="#1276D2"/>
<path d="M254.644 312.539C237.861 308.841 220.977 305.288 204.322 301.428C165.093 292.322 125.905 283.1 86.7595 273.76C84.6514 273.102 82.6294 272.321 80.7039 271.422L81.2013 270.318L215.459 248.359L255.244 312.028L254.644 312.539Z" fill="#1276D2"/>
<path d="M255.305 312.126L215.607 248.596L294.298 137.161L295.1 137.096C295.233 138.979 295.164 140.921 294.894 142.898C282.409 197.808 269.829 252.751 257.154 307.726C256.857 309.03 256.358 310.378 255.856 311.782L255.305 312.126Z" fill="#1276D2"/>
<path d="M81.0733 271.409C84.5942 267.506 88.2563 263.648 91.6512 259.664C116.1 231.099 140.531 202.528 164.945 173.949C165.664 173.009 166.323 172.046 166.917 171.068L167.526 172.044C182.857 196.578 198.188 221.113 213.507 245.628C214.865 247.01 216.542 248.125 218.478 248.935C216.152 250.481 213.633 251.712 211.052 252.564C169.461 259.571 127.887 266.443 86.3296 273.181C84.1541 273.502 81.3491 274.084 81.0733 271.409Z" fill="#1276D2"/>
<path d="M218.563 248.829C216.627 248.019 214.95 246.904 213.592 245.522C198.273 221.006 182.942 196.472 167.611 171.938C188.057 166.506 208.509 160.964 229.068 155.595C249.628 150.225 270.912 144.988 291.844 139.732C293.14 139.465 294.43 139.254 295.711 139.099C295.531 140.154 295.159 141.23 294.61 142.288C269.578 177.444 244.539 212.648 219.492 247.902C219.214 248.23 218.903 248.541 218.563 248.829Z" fill="#1276D2"/>
</g>
<g clip-path="url(#clip1_544_911)" filter="url(#filter0_f_544_911)">
<path d="M110.55 80.9826C112.997 80.9723 115.359 81.191 117.596 81.6353C176.022 100.121 234.382 118.604 292.677 137.083C293.528 137.277 294.416 137.407 295.334 137.471L296.195 138.849L295.544 139.256C294.264 139.411 292.973 139.622 291.678 139.889C270.745 145.146 249.817 150.347 228.902 155.752C207.988 161.157 187.999 166.596 167.445 172.095L166.835 171.119C148.754 142.183 130.673 113.246 112.591 84.3103C112.006 83.1325 111.258 82.0565 110.55 80.9826Z" fill="#1276D2"/>
<path d="M110.55 80.983C111.231 82.0738 111.913 83.1646 112.594 84.2555C130.676 113.192 148.757 142.128 166.838 171.064C166.245 172.042 165.586 173.005 164.867 173.946C140.469 202.55 116.037 231.121 91.573 259.66C88.1781 263.644 84.516 267.502 80.9951 271.406C82.295 261.413 83.3963 251.464 84.9069 241.446C92.5013 189.814 100.149 138.166 107.85 86.5019C108.127 84.6521 108.498 82.7705 108.83 80.8868L109.481 80.4799L110.55 80.983Z" fill="#1276D2"/>
<path d="M254.644 312.539C237.861 308.841 220.977 305.288 204.322 301.428C165.093 292.322 125.905 283.1 86.7595 273.76C84.6514 273.102 82.6294 272.321 80.7039 271.422L81.2013 270.318L215.459 248.359L255.244 312.028L254.644 312.539Z" fill="#1276D2"/>
<path d="M255.305 312.126L215.607 248.596L294.298 137.161L295.1 137.096C295.233 138.979 295.164 140.921 294.894 142.898C282.409 197.808 269.829 252.751 257.154 307.726C256.857 309.03 256.358 310.378 255.856 311.782L255.305 312.126Z" fill="#1276D2"/>
<path d="M81.0733 271.409C84.5942 267.506 88.2563 263.648 91.6512 259.664C116.1 231.099 140.531 202.528 164.945 173.949C165.664 173.009 166.323 172.046 166.917 171.068L167.526 172.044C182.857 196.578 198.188 221.113 213.507 245.628C214.865 247.01 216.542 248.125 218.478 248.935C216.152 250.481 213.633 251.712 211.052 252.564C169.461 259.571 127.887 266.443 86.3296 273.181C84.1541 273.502 81.3491 274.084 81.0733 271.409Z" fill="#1276D2"/>
<path d="M218.563 248.829C216.627 248.019 214.95 246.904 213.592 245.522C198.273 221.006 182.942 196.472 167.611 171.938C188.057 166.506 208.509 160.964 229.068 155.595C249.628 150.225 270.912 144.988 291.844 139.732C293.14 139.465 294.43 139.254 295.711 139.099C295.531 140.154 295.159 141.23 294.61 142.288C269.578 177.444 244.539 212.648 219.492 247.902C219.214 248.23 218.903 248.541 218.563 248.829Z" fill="#1276D2"/>
</g>
<defs>
<filter id="filter0_f_544_911" x="-77" y="-67" width="529.252" height="541.634" filterUnits="userSpaceOnUse" color-interpolation-filters="sRGB">
<feFlood flood-opacity="0" result="BackgroundImageFix"/>
<feBlend mode="normal" in="SourceGraphic" in2="BackgroundImageFix" result="shape"/>
<feGaussianBlur stdDeviation="40" result="effect1_foregroundBlur_544_911"/>
</filter>
<clipPath id="clip0_544_911">
<rect width="253" height="291.923" fill="white" transform="translate(3 147.069) rotate(-32)"/>
</clipPath>
<clipPath id="clip1_544_911">
<rect width="253" height="291.923" fill="white" transform="translate(3 147.069) rotate(-32)"/>
</clipPath>
</defs>
</svg>
