<svg width="460" height="206" viewBox="0 0 460 206" fill="none" xmlns="http://www.w3.org/2000/svg">
<g clip-path="url(#clip0_691_2000)">
<path d="M395.359 186.022V165.837C399.669 165.837 403.909 165.699 408.149 165.837C409.239 165.934 410.264 166.397 411.058 167.149C411.853 167.902 412.37 168.901 412.528 169.984C412.593 170.927 412.392 171.87 411.948 172.703C411.503 173.537 410.833 174.229 410.014 174.699C409.912 174.765 409.823 174.849 409.751 174.948C410.829 176.068 412.307 176.966 412.776 178.224C414.268 182.303 412.127 185.428 407.611 185.884C403.591 186.285 399.503 186.022 395.359 186.022ZM403.315 177.492C399.765 177.63 400.193 176.87 400.166 180.934C400.166 181.031 400.166 181.183 400.166 181.238C400.456 181.543 400.76 182.054 401.091 182.082C402.528 182.304 403.991 182.304 405.428 182.082C406.395 181.819 407.113 180.699 407.956 179.953C407.414 179.143 406.742 178.428 405.967 177.837C405.116 177.54 404.216 177.404 403.315 177.436V177.492ZM403.315 169.418C399.793 169.418 400.207 168.878 400.166 172.584C400.166 172.791 400.097 173.068 400.166 173.22C400.235 173.372 400.649 173.939 400.884 173.925C402.526 173.946 404.167 173.821 405.787 173.551C406.07 173.457 406.326 173.298 406.538 173.088C406.75 172.878 406.91 172.623 407.008 172.341C407.105 172.059 407.137 171.759 407.1 171.463C407.063 171.167 406.959 170.884 406.796 170.634C406.008 168.892 404.475 169.501 403.315 169.431V169.418Z" fill="white"/>
<path d="M308.135 165.394C312.762 165.795 317.348 164.745 321.796 166.404C323.363 167.06 324.727 168.121 325.749 169.479C326.771 170.837 327.414 172.443 327.611 174.132C327.88 175.509 327.855 176.928 327.538 178.294C327.221 179.661 326.619 180.946 325.771 182.063C324.923 183.181 323.849 184.106 322.619 184.779C321.389 185.452 320.03 185.856 318.633 185.967C318.361 185.987 318.089 185.987 317.818 185.967H308.149L308.135 165.394ZM312.914 175.708V178.625C312.914 182.068 312.914 181.944 316.326 182.096C317.409 182.11 318.476 181.84 319.422 181.313C320.368 180.786 321.16 180.02 321.719 179.092C322.278 178.163 322.584 177.105 322.607 176.021C322.63 174.938 322.369 173.867 321.851 172.915C320.262 169.791 317.348 169.362 314.254 169.348C313.26 169.348 312.873 169.708 312.873 170.731C312.901 172.362 312.901 174.035 312.901 175.708H312.914Z" fill="white"/>
<path d="M439.669 165.381C444.185 165.823 448.674 164.731 453.025 166.335C454.577 166.83 455.961 167.746 457.024 168.981C458.087 170.216 458.787 171.721 459.047 173.33C459.442 174.929 459.452 176.598 459.078 178.201C458.703 179.804 457.954 181.295 456.892 182.552C456.052 183.533 455.024 184.336 453.869 184.913C452.713 185.49 451.454 185.83 450.166 185.912C446.713 186.161 443.26 185.912 439.669 185.912V165.381ZM444.448 175.695V178.46C444.448 182.068 444.448 181.999 447.997 182.082C449.024 182.076 450.034 181.811 450.932 181.313C451.831 180.815 452.59 180.099 453.14 179.23C453.69 178.362 454.013 177.369 454.08 176.343C454.146 175.317 453.955 174.291 453.522 173.358C452.141 170.151 449.89 169.404 445.732 169.349C444.765 169.349 444.351 169.681 444.351 170.731C444.489 172.349 444.448 174.022 444.448 175.695Z" fill="white"/>
<path d="M369.144 185.842C369.016 185.9 368.881 185.942 368.743 185.967C366.906 185.967 364.738 186.52 363.315 185.732C361.892 184.944 361.588 182.828 360.76 181.308C360.193 180.284 357.113 179.538 356.257 180.284C356.014 180.621 355.892 181.031 355.912 181.446C355.912 182.206 355.912 182.967 355.912 183.727V186.022H351.091V165.837C355.235 165.837 359.378 165.56 363.398 165.934C364.877 166.05 366.252 166.742 367.228 167.861C368.203 168.98 368.703 170.437 368.619 171.92C368.702 174.685 368.274 177.174 365.856 178.971C365.566 179.178 365.663 180.354 365.953 180.838C366.892 182.51 368.039 184.142 369.144 185.842ZM355.898 172.653C355.898 176.206 355.898 176.206 359.517 176.206C359.89 176.206 360.262 176.206 360.649 176.206C361.453 176.104 362.199 175.733 362.766 175.154C363.333 174.574 363.687 173.819 363.771 173.012C363.771 170.994 362.39 169.445 359.282 169.39C355.29 169.335 355.953 168.851 355.898 172.653Z" fill="white"/>
<path d="M278.094 185.898V178.17C275.331 178.17 272.721 178.17 270.097 178.17C269.807 178.17 269.351 178.986 269.323 179.442C269.24 181.529 269.323 183.589 269.323 185.829H264.558V165.533H269.365C269.365 167.856 269.365 170.123 269.365 172.446C269.365 173.677 269.779 174.036 270.967 173.995C273.287 173.925 275.608 173.995 278.108 173.995V165.616H283.315V185.967L278.094 185.898Z" fill="white"/>
<path d="M393.108 186.023C391.354 186.023 389.779 186.092 388.232 186.023C387.845 186.023 387.348 185.4 387.182 184.958C386.229 182.497 386.257 182.483 383.605 182.483C381.989 182.483 380.359 182.552 378.729 182.483C377.431 182.414 376.547 182.621 376.354 184.156C376.178 184.825 375.903 185.463 375.539 186.05H370.235C371.478 183.119 372.666 180.243 373.895 177.395C375.47 173.773 377.086 170.165 378.674 166.542C378.757 166.363 378.674 166.1 378.84 165.948C379.53 165.022 384.365 165.533 384.862 166.612C386.837 171.202 388.785 175.819 390.732 180.437C391.506 182.138 392.265 183.976 393.108 186.023ZM381.809 171.354L381.285 171.464L378.522 178.377H384.558C383.619 175.805 382.721 173.58 381.809 171.298V171.354Z" fill="white"/>
<path d="M428.439 165.45L437.072 186.022C435.304 186.022 433.715 186.092 432.127 186.022C431.754 186.022 431.298 185.359 431.119 184.916C430.207 182.511 430.235 182.497 427.666 182.497C425.884 182.497 424.088 182.58 422.307 182.497C422.087 182.457 421.862 182.462 421.644 182.51C421.426 182.558 421.22 182.649 421.037 182.778C420.855 182.906 420.7 183.07 420.581 183.259C420.462 183.448 420.382 183.659 420.345 183.879C420.138 184.612 419.807 185.331 419.53 186.036H414.213C415.097 183.907 415.912 181.889 416.796 179.801C418.711 175.349 420.663 170.911 422.652 166.487C422.773 166.261 422.942 166.065 423.147 165.912C423.352 165.759 423.589 165.653 423.84 165.602C425.345 165.395 426.865 165.45 428.439 165.45ZM428.563 178.266C427.348 175.916 427.182 173.331 425.318 171.16C424.351 173.662 423.494 175.847 422.555 178.266H428.563Z" fill="white"/>
<path d="M330.856 185.871V165.533H346.63V169.432C343.743 169.432 340.787 169.432 337.831 169.432C337.141 169.432 335.898 169.64 335.856 169.916C335.684 171.136 335.684 172.374 335.856 173.594C335.856 173.76 336.685 173.939 337.141 173.953C339.903 173.953 342.762 173.953 345.663 173.953V177.852C342.818 177.852 340 177.852 337.21 177.852C335.981 177.852 335.497 178.239 335.649 179.442C335.691 179.874 335.691 180.309 335.649 180.741C335.525 181.847 336.064 182.124 337.03 182.124C340.276 182.124 343.522 182.124 346.878 182.124V185.926L330.856 185.871Z" fill="white"/>
<path d="M292.182 121.167V102.931C295.166 102.931 298.177 102.931 301.188 102.931C302.387 103.055 303.577 103.253 304.751 103.525C305.493 103.651 306.163 104.041 306.64 104.623C307.117 105.204 307.369 105.939 307.348 106.691C307.472 108.212 307.348 109.926 305.608 110.839C305.364 110.973 305.141 111.14 304.945 111.337C305.953 112.277 307.555 113.092 307.983 114.309C309.365 118.457 307.182 120.793 303.232 121.125C299.586 121.402 295.939 121.167 292.182 121.167ZM299.088 118.567C299.959 118.567 300.829 118.567 301.685 118.567C302.402 118.568 303.094 118.303 303.627 117.823C304.16 117.343 304.497 116.682 304.572 115.968C304.618 115.332 304.415 114.703 304.004 114.215C303.594 113.727 303.01 113.418 302.376 113.355C300.845 113.17 299.305 113.069 297.762 113.051C295.663 113.051 295.663 113.051 295.663 115.18C295.663 118.567 295.663 118.567 299.088 118.567ZM298.37 110.549C299.53 110.396 300.58 110.258 301.616 110.092C302.124 110.054 302.599 109.824 302.945 109.45C303.291 109.075 303.482 108.584 303.481 108.074C303.549 107.817 303.559 107.549 303.51 107.288C303.462 107.027 303.355 106.78 303.199 106.565C303.043 106.35 302.841 106.173 302.607 106.047C302.374 105.92 302.116 105.848 301.851 105.834C300.055 105.613 298.246 105.571 296.436 105.516C296.188 105.516 295.732 105.834 295.732 106.014C295.603 107.343 295.664 108.683 295.912 109.996C296.05 110.424 297.569 110.41 298.37 110.549Z" fill="white"/>
<path d="M305.207 33.3338C309.668 33.002 309.627 33.0296 311.63 36.8178C313.08 39.5829 314.641 42.2789 316.202 44.9749C316.395 45.3067 316.851 45.4864 317.472 45.9426V33.3338H320.649V51.4867C319.365 51.4867 318.135 51.4867 316.906 51.4867C316.691 51.446 316.486 51.3627 316.303 51.2416C316.121 51.1205 315.964 50.9641 315.843 50.7815C313.909 47.4358 312.03 44.0762 310.11 40.7304C309.751 40.1083 309.296 39.5414 308.881 38.9608L308.439 39.2096V51.4037H305.207V33.3338Z" fill="white"/>
<path d="M283.812 68.1321H287.099V86.3264C285.815 86.3264 284.53 86.3264 283.26 86.3264C283.048 86.2674 282.851 86.1658 282.68 86.028C282.509 85.8901 282.368 85.7188 282.265 85.5245C280.304 82.1373 278.398 78.7224 276.45 75.3213C276.103 74.8368 275.724 74.375 275.318 73.9388L274.917 74.1185V86.3126H271.671V68.0906C272.901 68.0906 274.13 68.0906 275.345 68.0906C275.566 68.1212 275.777 68.1987 275.966 68.318C276.154 68.4372 276.314 68.5954 276.437 68.7819C278.425 72.2659 280.359 75.7776 282.348 79.2754C282.675 79.7608 283.035 80.2228 283.425 80.658L283.812 80.4921V68.1321Z" fill="white"/>
<path d="M258.343 38.517V51.4024H255.083V33.2495C256.354 33.2495 257.68 33.1803 259.006 33.2495C259.351 33.2495 259.738 33.7748 259.959 34.1481C261.975 37.6736 263.964 41.2268 265.981 44.7523C266.228 45.1219 266.495 45.4772 266.782 45.8169L267.21 45.6924V33.2495H270.47V51.4024C269.213 51.4024 267.887 51.4715 266.561 51.4024C266.215 51.4024 265.829 50.8908 265.608 50.5175C263.467 46.8676 261.367 43.2038 259.254 39.5539C258.975 39.1872 258.67 38.8407 258.343 38.517Z" fill="white"/>
<path d="M402.873 68.1731C407.348 67.8551 407.293 67.8828 409.309 71.671C411.05 74.9621 412.968 78.1559 415.055 81.2382V68.1731H418.329V86.1463C418.221 86.2037 418.111 86.2545 417.997 86.2983C413.494 87.5841 412.472 83.9342 410.939 81.2106C409.558 78.9294 408.329 76.6067 407.017 74.2978C406.737 73.9358 406.432 73.594 406.105 73.2747V86.1878H402.873V68.1731Z" fill="white"/>
<path d="M244.227 77.2154C244.13 74.3397 244.586 71.6022 246.989 69.7634C248.211 68.843 249.629 68.2184 251.133 67.9385C253.914 67.3166 256.827 67.7762 259.282 69.2242C260.217 69.8766 260.998 70.7257 261.57 71.712C262.143 72.6984 262.493 73.7981 262.597 74.9342C263.26 78.7776 262.666 82.3308 259.406 84.9715C256.146 87.6122 247.638 87.3356 245.594 82.9668C244.896 81.1331 244.31 79.2585 243.84 77.3536L244.227 77.2154ZM258.867 77.1324C258.888 76.7548 258.888 76.3764 258.867 75.9987C258.855 74.9831 258.564 73.9904 258.026 73.1295C257.487 72.2686 256.722 71.5728 255.815 71.1183C254.779 70.5943 253.597 70.4348 252.459 70.6656C251.322 70.8963 250.295 71.5039 249.544 72.3903C247.5 74.63 247.486 77.2292 248.412 79.9528C248.585 80.6513 248.906 81.3044 249.353 81.8684C249.8 82.4325 250.362 82.8943 251.002 83.223C251.641 83.5516 252.344 83.7396 253.062 83.7741C253.78 83.8086 254.498 83.6889 255.166 83.423C257.776 82.5797 258.867 80.727 258.867 77.1324Z" fill="white"/>
<path d="M445.207 72.3353C444.537 72.5088 443.878 72.7212 443.232 72.9713C442.746 73.255 442.169 73.3387 441.623 73.2045C441.076 73.0704 440.603 72.7289 440.304 72.2523C439.653 71.4835 438.779 70.9371 437.804 70.6892C436.828 70.4414 435.8 70.5045 434.862 70.8698C433.86 71.165 432.966 71.7458 432.289 72.5414C431.612 73.3369 431.182 74.3126 431.05 75.3493C430.766 76.583 430.779 77.8662 431.086 79.0942C431.393 80.3221 431.987 81.4598 432.818 82.4141C434.724 84.6676 439.945 83.7966 441.354 82.4141C441.761 81.7435 441.904 80.9448 441.754 80.1744C441.754 79.9393 440.843 79.649 440.373 79.5937C439.406 79.4969 438.439 79.5937 437.403 79.5937V77.0636H445.138C445.138 79.2204 445.221 81.4187 445.138 83.6031C445.138 84.1146 444.351 84.723 443.757 84.9857C439.807 86.9351 435.718 87.6401 431.519 85.7599C430.521 85.3588 429.644 84.7041 428.976 83.8604C428.307 83.0167 427.87 82.0131 427.707 80.9486C427.279 78.4878 427.279 75.9713 427.707 73.5105C427.994 72.0972 428.728 70.814 429.8 69.8505C430.872 68.8869 432.226 68.2943 433.66 68.16C436.878 67.6346 440.041 67.4411 442.818 69.5425C443.703 70.3931 444.504 71.3285 445.207 72.3353Z" fill="white"/>
<path d="M285.511 165.45C287.113 165.45 288.564 165.45 290 165.45C290.239 165.499 290.465 165.597 290.665 165.737C290.864 165.877 291.033 166.057 291.16 166.265C292.431 168.464 293.633 170.703 294.862 172.916C295.055 173.275 295.304 173.607 295.746 174.298C297.044 171.948 298.356 169.915 299.323 167.745C300.124 165.934 301.16 164.98 303.177 165.408C304.059 165.478 304.946 165.478 305.829 165.408C304.862 167.302 303.992 169.072 303.066 170.814C301.602 173.579 300.028 176.261 298.66 179.109C298.352 180.068 298.225 181.076 298.287 182.082C298.287 183.326 298.287 184.557 298.287 185.884H293.08C293.049 185.424 293.049 184.962 293.08 184.501C293.729 180.464 291.961 177.188 289.972 173.911C288.384 171.215 287.086 168.436 285.511 165.45Z" fill="white"/>
<path d="M402.776 46.3842C403.311 45.325 403.773 44.2302 404.157 43.1076C404.517 41.808 405.152 41.5729 406.271 42.1398C406.602 42.3057 406.948 42.4163 407.528 42.6375L404.972 48.3474L408.674 49.4396C408.591 49.1216 408.674 49.2184 408.674 49.329C408.743 51.9835 407.058 52.7439 404.199 51.1402C403.763 50.871 403.261 50.7285 402.749 50.7285C402.236 50.7285 401.734 50.871 401.298 51.1402C400.119 51.6969 398.831 51.9856 397.528 51.9856C396.224 51.9856 394.936 51.6969 393.757 51.1402C390.994 49.8959 390.456 44.8634 392.97 42.9278C394.724 41.5453 395.939 40.7158 395.11 38.1857C394.931 37.7616 394.839 37.3059 394.839 36.8455C394.839 36.3851 394.931 35.9294 395.11 35.5053C395.289 35.0812 395.551 34.6973 395.881 34.3764C396.211 34.0555 396.602 33.8041 397.03 33.6371C398.082 33.128 399.254 32.923 400.416 33.0451C401.578 33.1672 402.682 33.6117 403.605 34.3284C405.083 35.4206 404.682 38.8493 403.066 40.0521C402.551 40.421 402.011 40.7536 401.45 41.0476C399.323 42.1674 399.323 42.1674 400.691 44.0339C401.091 44.6007 401.533 45.1399 401.975 45.6653C402.23 45.9182 402.497 46.1581 402.776 46.3842ZM396.782 43.5362C394.199 45.2643 394.254 47.034 395.193 48.2783C396.423 49.9235 398.246 49.9512 400.414 48.458L396.782 43.5362ZM398.785 39.7895C399.489 39.2779 400.166 38.7525 400.925 38.2133C401.115 38.1185 401.281 37.9811 401.409 37.8118C401.537 37.6426 401.625 37.446 401.665 37.2374C401.705 37.0288 401.696 36.8138 401.64 36.609C401.584 36.4042 401.481 36.2151 401.34 36.0566C401.013 35.7793 400.631 35.5753 400.218 35.4584C399.806 35.3416 399.374 35.3145 398.95 35.3791C397.155 35.8077 397.155 38.0889 398.785 39.7756V39.7895Z" fill="white"/>
<path d="M237.459 169.695V165.547H254.889V169.695H248.854V185.884H243.564V174.05C243.564 169.695 243.564 169.695 239.282 169.695H237.459Z" fill="white"/>
<path d="M332.445 68.1328H336.036C336.036 72.5155 336.326 76.8844 335.967 81.1841C335.608 85.4838 332.541 86.2027 329.655 86.6037C328.222 86.732 326.778 86.6387 325.373 86.3272C321.229 85.6083 320.359 83.1473 320.138 79.8292C319.89 76.0133 320.138 72.156 320.138 68.2019H323.95V76.3866C323.95 77.5895 323.95 78.7784 323.95 79.9674C324.069 81.0061 324.566 81.9647 325.345 82.6606C326.124 83.3566 327.132 83.7412 328.177 83.7412C329.221 83.7412 330.229 83.3566 331.009 82.6606C331.788 81.9647 332.285 81.0061 332.403 79.9674C332.472 76.0963 332.445 72.1975 332.445 68.1328Z" fill="white"/>
<path d="M279.061 102.987H282.638C282.638 107.397 282.928 111.766 282.555 116.079C282.182 120.393 279.227 121.043 276.215 121.444C274.83 121.562 273.434 121.478 272.072 121.195C267.859 120.476 267.017 118.167 266.754 114.946C266.423 111.033 266.671 107.065 266.671 103.028H270.58V114.379C270.652 115.461 271.134 116.474 271.929 117.212C272.723 117.949 273.769 118.354 274.853 118.343C275.936 118.332 276.974 117.907 277.754 117.154C278.534 116.402 278.997 115.379 279.047 114.296L279.061 102.987Z" fill="white"/>
<path d="M311.133 72.2105L309.24 72.5423C308.273 72.7221 307.5 72.805 306.809 71.6713C305.815 70.0399 302.514 69.791 301.036 71.0215C299.558 72.252 299.793 73.676 301.409 74.312C303.421 75.07 305.479 75.7026 307.569 76.2061C310.014 76.8559 311.506 78.3352 311.616 80.4228C311.809 83.8239 310.635 85.6212 307.97 86.1051C305.188 86.4854 302.367 86.4854 299.586 86.1051C297.459 85.8839 296.326 84.1281 295.622 82.1925C295.901 81.8903 296.242 81.6516 296.622 81.4927C297.001 81.3338 297.41 81.2584 297.822 81.2715C298.233 81.2846 298.636 81.3859 299.005 81.5687C299.374 81.7514 299.699 82.0113 299.959 82.3308C300.813 83.2484 301.965 83.8327 303.209 83.9796C304.454 84.1264 305.71 83.8263 306.754 83.1326C307.376 82.7317 308.135 81.3768 307.928 81.1003C307.252 80.133 306.326 79.3683 305.249 78.8882C303.315 78.1278 301.215 77.796 299.213 77.1738C297.21 76.5517 296.45 74.6299 296.367 72.6805C296.367 70.3717 297.486 69.1274 299.807 68.2979C302.415 67.4595 305.213 67.4162 307.845 68.1735C308.74 68.4285 309.535 68.9524 310.123 69.6744C310.711 70.3964 311.064 71.2816 311.133 72.2105Z" fill="white"/>
<path d="M370.483 48.873V51.4031H355.566V33.3193H369.82V35.8494C367.127 35.8494 364.392 35.8494 361.657 35.8494C360.842 35.8494 359.406 36.0153 359.351 36.3056C359.171 37.6361 359.171 38.9846 359.351 40.315C359.351 40.4809 360.18 40.6884 360.621 40.6884C363.384 40.6884 366.243 40.6884 369.157 40.6884V43.6194C366.395 43.6194 363.633 43.6885 360.87 43.6194C359.572 43.6194 359.185 44.0065 359.226 45.2922C359.351 49.4399 358.646 48.8039 362.693 48.8592C365.193 48.9007 367.79 48.873 370.483 48.873Z" fill="white"/>
<path d="M296.657 51.4855C295.78 51.5698 294.897 51.5698 294.019 51.4855C293.752 51.4216 293.501 51.3025 293.282 51.1359C293.063 50.9692 292.881 50.7587 292.749 50.5177C291.367 46.9922 291.367 46.9784 287.569 46.9784C287.298 46.999 287.025 46.999 286.754 46.9784C286.41 46.8867 286.05 46.8674 285.698 46.9215C285.346 46.9757 285.009 47.1021 284.708 47.293C284.407 47.4839 284.149 47.735 283.949 48.0307C283.75 48.3263 283.614 48.66 283.55 49.0107C282.541 51.7758 282.39 51.7759 278.95 51.4164C279.793 49.0661 280.608 46.7572 281.45 44.5037C282.707 41.0888 283.95 37.6739 285.262 34.3004C285.38 34.0721 285.546 33.8723 285.749 33.7147C285.952 33.5571 286.186 33.4456 286.436 33.3879C290.207 33.0838 290.166 33.1252 291.436 36.7337C293.08 41.3929 294.82 46.0106 296.506 50.656C296.573 50.9292 296.624 51.2062 296.657 51.4855ZM285.193 43.9644C286.865 43.9644 288.191 43.9644 289.503 43.9644C289.779 43.9644 290.276 43.2731 290.207 43.0381C289.613 41.0058 288.909 39.0011 288.232 36.9964L287.652 36.9134L285.193 43.9644Z" fill="white"/>
<path d="M233.274 115.042L236.657 116.424C234.475 123.047 224.102 122.839 220.994 118.623C220.426 117.864 220.004 117.006 219.751 116.093C218.743 112.346 218.605 108.696 221.133 105.309C221.704 104.581 222.42 103.981 223.236 103.545C224.051 103.11 224.948 102.849 225.87 102.779C228.633 102.378 231.506 102.281 233.909 104.023C234.993 105.06 235.952 106.22 236.768 107.479L233.218 108.571C232.017 106.982 230.746 105.571 228.495 105.544C227.428 105.443 226.359 105.699 225.454 106.272C224.549 106.845 223.86 107.702 223.494 108.71C222.917 109.913 222.659 111.245 222.746 112.577C222.833 113.909 223.262 115.196 223.992 116.314C226.409 119.839 231.326 119.355 233.274 115.042Z" fill="white"/>
<path d="M343.992 45.3614L347.293 46.661C346.726 48.2348 345.67 49.5856 344.281 50.516C342.892 51.4463 341.242 51.9074 339.572 51.8317C336.63 51.8317 333.826 51.5137 331.92 49.0666C330.94 47.8372 330.28 46.3835 330 44.836C329.517 41.4764 329.448 37.9232 332.003 35.324C333.264 34.1354 334.851 33.3508 336.561 33.0705C338.95 32.6834 341.561 32.4207 343.729 33.9139C345.016 34.9386 346.221 36.0619 347.334 37.2734L347.072 37.8403C346.064 38.1583 345.055 38.5039 344.033 38.7389C343.84 38.7389 343.522 38.338 343.301 38.0753C341.064 35.3102 337.914 34.9093 335.304 37.1905C334.63 37.8742 334.115 38.6982 333.795 39.6038C333.475 40.5094 333.358 41.4745 333.453 42.4304C333.37 43.5547 333.588 44.681 334.086 45.6923C334.584 46.7036 335.343 47.5631 336.285 48.1817C338.812 49.7302 342.265 49.0389 343.992 45.3614Z" fill="white"/>
<path d="M236.367 72.6529L233.122 73.6345C232.543 72.4816 231.581 71.5673 230.4 71.0497C229.22 70.5321 227.896 70.4439 226.657 70.8003C223.384 71.6298 222.514 75.5977 222.832 78.3213C222.896 79.2583 223.179 80.1669 223.659 80.9739C224.139 81.7809 224.802 82.4635 225.594 82.9667C228.149 84.5152 231.616 83.81 233.315 80.2016L236.685 81.5841C234.475 88.2342 224.006 88.0407 220.912 83.6303C220.137 82.504 219.623 81.2195 219.406 79.8698C218.923 76.6346 218.826 73.4409 221.036 70.5791C221.59 69.8762 222.279 69.2906 223.061 68.8562C223.844 68.4219 224.705 68.1475 225.594 68.049C228.099 67.4841 230.717 67.721 233.08 68.7264C233.861 69.1296 234.554 69.6845 235.118 70.3586C235.683 71.0327 236.107 71.8127 236.367 72.6529Z" fill="white"/>
<path d="M233.08 42.0291V44.6421C230.483 44.6421 227.845 44.7112 225.221 44.6421C223.84 44.6421 223.246 44.9463 223.356 46.4394C223.467 47.9326 223.356 49.6746 223.356 51.4028H219.876V33.4296H233.356V35.932C230.594 35.932 227.735 35.932 224.945 35.932C223.757 35.932 223.329 36.25 223.329 37.4943C223.329 42.1535 223.329 42.1397 227.832 42.1397L233.08 42.0291Z" fill="white"/>
<path d="M220.525 185.898V165.533H225.262V185.898H220.525Z" fill="white"/>
<path d="M234.682 185.925H230.028V165.56H234.724L234.682 185.925Z" fill="white"/>
<path d="M375.76 86.2568H372.168V82.593C372.168 79.1228 372.168 75.6803 372.168 72.1824C372.168 71.0625 371.837 70.6201 370.677 70.6754C369.171 70.7446 367.666 70.6754 366.05 70.6754V68.1592H381.823V70.6754C380.276 70.6754 378.771 70.7446 377.279 70.6754C376.05 70.6063 375.691 71.0625 375.704 72.2654C375.787 76.8692 375.76 81.4731 375.76 86.2568Z" fill="white"/>
<path d="M244.931 121.042V103.069H248.453C248.453 107.659 248.522 112.208 248.453 116.743C248.453 118.291 248.909 118.72 250.401 118.651C253.053 118.54 255.704 118.651 258.481 118.651V121.042H244.931Z" fill="white"/>
<path d="M359.102 83.7129V86.2429H345.552V68.1592H349.061V72.1271C349.061 75.4314 349.061 78.7495 349.061 82.0538C349.061 83.3257 349.378 83.7958 350.704 83.7405C353.439 83.7129 356.202 83.7129 359.102 83.7129Z" fill="white"/>
<path d="M242.072 33.3193H245.456V51.4031H242.072V33.3193Z" fill="white"/>
<path d="M460.014 140.495V144.864H218.301V140.495H460.014Z" fill="white"/>
<path d="M393.232 86.2713H389.848V68.1875H393.232V86.2713Z" fill="white"/>
</g>
<path d="M149.24 162.436C145.76 165.505 142.373 168.643 138.87 171.597C133.673 175.745 127.945 179.18 121.84 181.812C116.208 184.403 110.292 186.324 104.214 187.537C99.7562 188.544 95.2082 189.096 90.6395 189.186C86.8167 189.186 82.9711 189.438 79.1941 189.186C70.4663 188.478 61.9019 186.415 53.8082 183.071C45.8542 179.926 38.4635 175.51 31.9246 169.994C28.425 166.989 25.0859 163.801 21.9214 160.444C18.0221 156.173 14.613 151.48 11.7579 146.45C8.57028 140.943 6.00596 135.097 4.11234 129.022C2.6405 124.277 1.55348 119.421 0.861847 114.501C-0.674144 103.836 -0.153531 92.9755 2.39553 82.5065C4.22971 74.8012 7.08586 67.376 10.888 60.4285C18.0785 47.4798 28.4656 36.5906 41.0581 28.8001C47.7294 24.5593 55.0086 21.362 62.6441 19.3184C66.8317 18.124 71.1006 17.2361 75.4171 16.6618C80.9502 16.059 86.5203 15.8676 92.0816 16.0892C101.296 16.5478 110.366 18.561 118.91 22.0438C126.674 25.0998 133.905 29.3667 140.335 34.686C142.83 36.816 145.234 39.0146 147.66 41.1903C147.999 41.4932 148.219 41.9076 148.278 42.3584C147.225 41.6026 146.173 40.8468 145.165 40.0681C139.732 36.0119 133.781 32.6999 127.471 30.22C122.429 28.2503 117.197 26.8074 111.859 25.9144C105.947 24.9229 99.939 24.6308 93.9586 25.0441C86.8493 25.451 79.8384 26.9017 73.1509 29.3497C66.3742 31.8308 59.9728 35.2373 54.1287 39.4727C49.2325 43.0569 44.7353 47.157 40.7147 51.7026C35.5891 57.5555 31.3895 64.1593 28.2621 71.2843C25.7978 76.68 24.0287 82.3672 22.9972 88.2092C22.425 91.4156 22.1503 94.6906 21.8298 97.9657C21.5855 100.5 21.5014 103.047 21.578 105.592C21.8767 111.852 22.9062 118.055 24.6454 124.075C26.0354 128.994 27.9222 133.76 30.2765 138.297C32.9808 143.333 36.1865 148.082 39.8448 152.474C44.775 158.361 50.5352 163.499 56.9443 167.727C63.6373 172.217 71.0227 175.575 78.8049 177.666C82.014 178.536 85.2802 179.179 88.5793 179.59C92.4659 180.097 96.38 180.365 100.299 180.392C104.017 180.346 107.724 179.978 111.379 179.293C115.915 178.513 120.39 177.411 124.77 175.995C132.837 173.282 140.35 169.139 146.951 163.765C147.615 163.238 148.324 162.803 149.034 162.322L149.24 162.436Z" fill="white"/>
<path d="M100.254 93.1789L116.483 114.226L155.947 84.9569L152.765 80.8115H172.268L166.866 99.4542L163.386 95.2172L114.56 129.96C113.187 128.174 111.813 126.456 110.463 124.647L100.025 110.905C99.5268 110.157 98.976 109.445 98.3766 108.775C98.186 108.646 97.9653 108.567 97.7356 108.546C97.5196 108.478 97.2878 108.478 97.0718 108.546C87.3661 114.348 77.6223 120.173 67.8403 126.021L40.3713 142.717C40.2271 142.738 40.0806 142.738 39.9364 142.717L100.254 93.1789Z" fill="white"/>
<path d="M81.2542 165.757V124.029C81.2018 123.675 81.2593 123.314 81.4191 122.995C81.5788 122.675 81.8329 122.412 82.147 122.242C86.9541 119.402 91.7611 116.425 96.5682 113.585L96.9573 113.425L110.142 130.785C110.76 131.609 111.47 132.411 112.019 133.258C112.271 133.731 112.404 134.257 112.409 134.793V160.444C112.429 160.871 112.287 161.291 112.011 161.618C111.735 161.945 111.345 162.156 110.921 162.207C107.441 163.192 104.053 164.223 100.574 165.024C95.391 166.106 90.089 166.507 84.8023 166.215C83.7036 166.078 82.5132 165.872 81.2542 165.757Z" fill="white"/>
<path d="M75.234 86.3311V107.424C75.2194 108.02 74.9731 108.587 74.5473 109.005C71.2281 111.822 67.8403 114.547 64.4982 117.295L53.2817 126.456L45.4073 132.938C45.0995 133.149 44.7694 133.326 44.423 133.464V86.3311H75.234Z" fill="white"/>
<path d="M149.515 155.13H130.057C128.114 154.853 126.134 154.995 124.25 155.549C122.367 156.102 120.624 157.052 119.139 158.336C118.905 158.459 118.659 158.559 118.406 158.634V133.075C118.413 132.783 118.475 132.496 118.589 132.228C118.706 131.971 118.869 131.738 119.07 131.54C128.455 124.807 137.848 118.112 147.248 111.455C147.935 110.951 148.645 110.493 149.537 109.943L149.515 155.13Z" fill="white"/>
<path d="M118.475 65.4443H149.537V76.6437L144.822 77.1017C146.218 78.9339 147.477 80.6516 148.828 82.3006C150.178 83.9496 149.995 84.5908 148.507 85.5986L120.146 106.669C119.665 107.012 119.116 107.31 118.475 107.677V65.4443Z" fill="white"/>
<path d="M149.354 46.114H125.868C125.475 46.097 125.094 45.9701 124.77 45.7476C117.69 41.1746 109.817 37.9666 101.558 36.2889C87.9652 33.5755 73.8644 35.1769 61.2248 40.8694C56.2714 43.1695 51.6011 46.0361 47.3072 49.412C46.9606 49.6178 46.6013 49.8014 46.2314 49.9617C68.0234 25.7537 114.949 16.0888 149.354 46.114Z" fill="white"/>
<path d="M45.7278 155.131C47.6964 156.505 49.6192 157.971 51.6565 159.299C63.8524 167.428 78.403 171.271 93.0201 170.224C100.125 169.854 107.105 168.202 113.622 165.345C117.33 163.673 120.855 161.589 124.472 159.688C124.831 159.485 125.229 159.36 125.639 159.322C133.377 159.322 141.114 159.322 149.011 159.574C147.557 160.897 146.028 162.136 144.433 163.284C140.427 165.826 136.421 168.414 132.232 170.636C126.169 173.631 119.71 175.744 113.05 176.911C106.718 178.075 100.262 178.406 93.8442 177.896C85.6841 177.363 77.6807 175.402 70.198 172.102C63.5053 169.288 57.2528 165.524 51.6336 160.925C49.5276 159.139 47.559 157.169 45.5446 155.291L45.7278 155.131Z" fill="white"/>
<path d="M75.1653 126.64V164.795C73.8148 164.475 72.5329 164.246 71.2968 163.902C63.3308 161.679 55.8953 157.87 49.4361 152.703C47.9482 151.512 46.4832 150.412 45.041 149.084C44.4928 148.45 44.2063 147.631 44.2399 146.794C44.2651 146.365 44.374 145.945 44.5603 145.557C44.7675 145.171 45.0384 144.822 45.3615 144.527L68.8932 130.258L75.1653 126.64Z" fill="white"/>
<path d="M81.3229 75.8418H112.271V102.248L100.826 87.4534L81.094 103.623L81.3229 75.8418Z" fill="white"/>
<path d="M45.2471 50.6036L45.8193 50.1455L45.9567 50.3058L45.4073 50.7639L45.2471 50.6036Z" fill="white"/>
<path d="M44.7435 154.398L44.1254 154.238L44.5146 153.871L44.9037 154.306L44.7435 154.398Z" fill="white"/>
<path d="M149.08 162.253L149.423 161.772H149.606L149.24 162.322C149.183 162.307 149.13 162.284 149.08 162.253Z" fill="white"/>
<path d="M149.377 43.0684L149.858 43.5035L149.721 43.6638L149.194 43.2745L149.377 43.0684Z" fill="white"/>
<path d="M149.194 43.2747L148.622 43.0228L148.896 42.7021L149.377 43.0686L149.194 43.2747Z" fill="white"/>
<path d="M45.2928 154.993L45.041 154.764L45.1784 154.627L45.4531 154.902C45.4531 154.902 45.3386 154.948 45.2928 154.993Z" fill="white"/>
<path d="M45.0411 154.764L44.7435 154.443H44.9037L45.1784 154.718L45.0411 154.764Z" fill="white"/>
<path d="M45.5675 155.268L45.2928 154.97L45.4531 154.81L45.7278 155.107L45.5675 155.268Z" fill="white"/>
<defs>
<clipPath id="clip0_691_2000">
<rect width="250" height="206" fill="white" transform="translate(210)"/>
</clipPath>
</defs>
</svg>
