<svg width="21" height="16" viewBox="0 0 21 16" fill="none" xmlns="http://www.w3.org/2000/svg">
<g id="messgae 1" clip-path="url(#clip0_365_807)">
<path id="Vector" d="M10.65 15.4959C8.08555 15.4959 5.51705 15.4959 2.95256 15.4959C1.51229 15.4959 0.512107 14.8304 0.37208 13.5184C0.140036 11.3139 0.0200038 9.09056 0 6.871C0.0335237 5.37097 0.167148 3.87443 0.400076 2.3903C0.457663 1.86158 0.726508 1.37354 1.15176 1.02573C1.57701 0.677921 2.12662 0.496548 2.68851 0.5186C4.7209 0.492131 6.75329 0.5186 8.78568 0.5186C11.9503 0.5186 15.1189 0.5186 18.2835 0.5186C20.0798 0.5186 20.94 1.11225 20.976 2.7495C21.056 6.48532 20.976 10.2287 20.936 13.9683C20.936 14.683 19.6637 15.4808 18.6596 15.4808C15.991 15.4808 13.3265 15.4808 10.658 15.4808L10.65 15.4959ZM10.678 8.53474C11.3502 8.13393 11.9543 7.74825 12.5784 7.40038C14.8148 6.13746 17.0632 4.89345 19.2917 3.61918C19.3898 3.55167 19.4729 3.46646 19.5361 3.36847C19.5993 3.27048 19.6413 3.16163 19.6597 3.04822C19.7798 2.15964 19.3437 1.76639 18.1995 1.76639C13.2012 1.76639 8.2069 1.76639 3.21662 1.76639C3.05103 1.72834 2.87877 1.72405 2.71129 1.75381C2.54382 1.78357 2.38496 1.84669 2.2453 1.93898C2.10564 2.03127 1.98838 2.15061 1.90131 2.28906C1.81425 2.42751 1.75937 2.58189 1.74033 2.74194C1.73314 2.90938 1.76529 3.07625 1.83447 3.23054C1.90364 3.38484 2.00812 3.52272 2.14041 3.6343C3.10859 4.28089 4.14079 4.85942 5.15699 5.43794C6.03315 5.93327 6.94132 6.37945 7.81749 6.871C8.69366 7.36256 9.69385 7.95243 10.678 8.53095V8.53474ZM19.6197 13.1932C18.7876 12.7092 17.9514 12.2327 17.1233 11.7412C15.891 11.0152 14.6628 10.2817 13.4306 9.55188C12.7904 9.17376 12.1663 9.04142 11.5222 9.55188C10.8781 10.0623 10.378 9.93 9.72585 9.55188C9.50895 9.43451 9.26898 9.36021 9.02064 9.33356C8.77229 9.3069 8.52081 9.32844 8.28158 9.39685C7.4265 9.76735 6.60724 10.2076 5.83312 10.7127C4.46486 11.5294 3.1206 12.3802 1.74434 13.2272C1.68833 13.9834 2.14442 14.267 2.89656 14.267H18.4995C19.2437 14.267 19.6958 13.9872 19.6197 13.1932ZM13.8266 8.31165L19.6958 11.7488C19.8342 9.44343 19.8142 7.13203 19.6357 4.82916L13.8266 8.31165ZM1.98838 11.5559L7.55344 8.29652L1.95237 5.0031C1.44828 5.72153 1.44428 10.7732 1.98838 11.5559Z" fill="white"/>
</g>
<defs>
<clipPath id="clip0_365_807">
<rect width="21" height="15" fill="white" transform="translate(0 0.5)"/>
</clipPath>
</defs>
</svg>
