<svg width="21" height="30" viewBox="0 0 21 30" fill="none" xmlns="http://www.w3.org/2000/svg">
<path opacity="0.6" d="M20.0967 7.17764L19.1308 10.4731H0.721691L1.6876 7.17764H20.0967ZM11.4603 29.3936L1.0626 16.6663L1.00578 14.2799H6.17624C7.52093 14.2799 8.66677 14.0905 9.61374 13.7117C10.5607 13.3235 11.2851 12.7458 11.787 11.9788C12.2889 11.2023 12.5399 10.2269 12.5399 9.05264C12.5399 7.31969 12.019 5.96079 10.9774 4.97594C9.93571 3.98162 8.33533 3.48446 6.17624 3.48446H0.721691L1.6876 0.302645H6.17624C8.48684 0.302645 10.3808 0.686167 11.8581 1.45321C13.3448 2.21079 14.4433 3.25246 15.1535 4.57821C15.8732 5.8945 16.2331 7.38598 16.2331 9.05264C16.2331 10.5583 15.9016 11.9456 15.2387 13.2146C14.5853 14.474 13.5342 15.4873 12.0853 16.2543C10.6459 17.0214 8.74252 17.4049 6.3751 17.4049H6.28987L15.8921 29.1663V29.3936H11.4603ZM20.0967 0.302645L19.1308 3.5981L4.64215 3.48446L5.60805 0.302645H20.0967Z" fill="#1270ED"/>
</svg>
