<svg width="67" height="77" viewBox="0 0 67 77" fill="none" xmlns="http://www.w3.org/2000/svg">
<g opacity="0.6" filter="url(#filter0_f_187_50)">
<path d="M44.0822 19.8599L44.6281 25.8447L14.6638 37.677L14.1179 31.6921L44.0822 19.8599ZM44.3039 61.5715L19.1993 47.5384L17.573 43.6907L25.9889 40.3674C28.1777 39.5031 29.921 38.4584 31.2189 37.2332C32.5107 35.9926 33.3186 34.5867 33.6425 33.0156C33.9604 31.4291 33.7419 29.6802 32.9872 27.7689C31.8733 24.9481 30.1521 23.071 27.8236 22.1375C25.489 21.1886 22.5646 21.408 19.0502 22.7957L10.1719 26.3016L9.69902 20.5018L17.0051 17.6167C20.7661 16.1316 24.0954 15.5385 26.9929 15.8376C29.8998 16.1151 32.3573 17.1045 34.3655 18.806C36.3829 20.4859 37.9273 22.6823 38.9985 25.3951C39.9663 27.8459 40.3185 30.317 40.0551 32.8085C39.8011 35.2785 38.7414 37.6034 36.8761 39.7832C35.0263 41.9569 32.1746 43.8045 28.3212 45.3261L28.1824 45.3809L51.3715 58.353L51.5176 58.723L44.3039 61.5715ZM39.6634 8.66947L40.2093 14.6543L16.5532 23.7818L16.0803 17.9819L39.6634 8.66947Z" fill="#1270ED"/>
</g>
<defs>
<filter id="filter0_f_187_50" x="0.126831" y="0.669434" width="66.2345" height="75.8042" filterUnits="userSpaceOnUse" color-interpolation-filters="sRGB">
<feFlood flood-opacity="0" result="BackgroundImageFix"/>
<feBlend mode="normal" in="SourceGraphic" in2="BackgroundImageFix" result="shape"/>
<feGaussianBlur stdDeviation="4" result="effect1_foregroundBlur_187_50"/>
</filter>
</defs>
</svg>
