<svg width="1225" height="683" viewBox="0 0 1225 683" fill="none" xmlns="http://www.w3.org/2000/svg">
<path d="M957.559 156.462C954.778 156.209 951.972 155.729 949.191 155.729C888.512 155.729 827.833 155.729 767.155 155.729C759.089 155.729 759.064 155.501 759.089 147.08C759.089 100.936 759.089 54.7924 759.089 8.64881C759.089 0.455232 759.317 0 767.306 0H1216C1225.1 0 1225 1.86909e-05 1225 9.02812C1225 157.777 1225 306.543 1225 455.325C1225 463.999 1225 463.974 1216.18 463.974H1078.41C1069.08 463.974 1068.98 463.771 1068.98 454.389C1068.98 394.522 1068.98 334.672 1068.98 274.839C1068.77 272.047 1068.4 269.269 1067.87 266.519C1063.97 270.616 1061.4 273.473 1058.64 276.204C1036.87 297.826 1014.98 319.322 993.284 341.02C964.841 369.444 936.65 398.046 908.207 426.47C883.658 451.001 858.88 475.328 834.28 499.808C801.649 532.329 769.051 564.901 736.487 597.524C719.219 614.746 701.799 631.79 684.531 649.012C680.865 652.679 678.463 653.033 674.417 648.86C641.904 616.187 609.011 583.919 576.371 551.397C554.501 529.598 532.935 507.521 511.116 485.646C496.402 470.953 481.409 456.539 466.77 441.77C462.801 437.775 460.07 438.179 456.303 441.973C420.907 477.377 385.511 512.781 350.116 548.185C321.125 577.2 292.184 606.249 263.295 635.331C249.254 649.492 235.391 663.823 221.704 678.322C220.21 679.913 218.379 681.15 216.344 681.942C214.31 682.734 212.125 683.061 209.948 682.899C144.449 682.798 78.9328 682.798 13.3999 682.899H0.935459L0 680.952C3.84298 676.83 7.58484 672.606 11.5542 668.611C30.9377 649.121 50.3211 629.674 69.7046 610.27C88.2874 591.783 107.098 573.55 125.554 554.938C147.297 533.037 168.535 510.707 190.379 488.782C208.557 470.422 227.115 452.417 245.394 434.133C260.842 418.656 276.088 403.002 291.51 387.5C302.028 376.904 312.647 366.435 323.265 355.965C338.637 340.792 354.11 325.619 369.457 310.445C384.803 295.272 399.796 280.099 414.966 264.926C428.18 251.674 441.412 238.423 454.66 225.172C461.992 217.812 462.75 217.585 470.133 225.172C495.744 250.713 521.255 276.381 546.917 301.898C571.618 326.504 596.496 350.958 621.223 375.539C639.527 393.747 657.832 411.955 675.859 430.441C679.272 433.956 681.573 433.956 684.708 430.795C705.49 409.94 726.298 389.094 747.131 368.256C763.059 352.4 779.189 336.721 795.168 320.839C814.054 301.999 832.713 282.906 851.599 264.116C873.014 242.773 894.58 221.555 916.045 200.237C930.051 186.362 944.05 172.444 958.039 158.485L957.559 156.462Z" fill="url(#paint0_linear_220_34)"/>
<defs>
<linearGradient id="paint0_linear_220_34" x1="1193.13" y1="29.7858" x2="692.626" y2="528.627" gradientUnits="userSpaceOnUse">
<stop stop-color="#1607FC"/>
<stop offset="1" stop-color="#1607FC" stop-opacity="0"/>
</linearGradient>
</defs>
</svg>
