<svg width="90" height="41" viewBox="0 0 90 41" fill="none" xmlns="http://www.w3.org/2000/svg">
<path opacity="0.8" d="M25.9393 0.0187186C30.7605 0.0187186 35.5816 -0.0233983 40.3989 0.0187186C45.0437 0.072322 48.6384 2.08629 50.8306 6.20226C51.5227 7.53351 51.8991 9.00601 51.9304 10.5058C52.0454 16.9765 51.9841 23.451 51.9803 29.9256C51.9803 34.1373 49.9414 37.162 46.4003 39.2793C44.4652 40.4096 42.2569 40.9883 40.0156 40.9525C30.6953 40.9908 21.3712 41.0368 12.0394 40.9525C7.17992 40.9028 3.22492 38.9462 1.03281 34.3976C0.419747 33.0771 0.0944783 31.6415 0.0785503 30.1859C-0.0249236 23.8722 0.120707 17.5509 0.00190414 11.241C-0.0900726 6.30564 3.15977 2.21264 7.6398 0.734716C8.93989 0.318292 10.2948 0.097621 11.66 0.079981C16.4274 -0.0272257 21.1834 0.0187186 25.9393 0.0187186ZM31.4235 37.1084C31.2982 36.8903 31.1881 36.6639 31.0939 36.4307C30.7375 35.2553 30.1894 34.0951 30.086 32.8967C29.8369 30.0175 31.2663 27.8542 33.3895 26.047C33.7393 25.718 33.9526 25.2698 33.9873 24.7911C34.0448 22.3369 33.9873 19.8826 34.0371 17.4283C34.0709 17.1019 33.9941 16.7736 33.819 16.4959C33.6439 16.2183 33.3807 16.0073 33.0714 15.8968C31.9703 15.3725 31.0829 14.4862 30.5576 13.3864C30.0323 12.2866 29.901 11.0399 30.1856 9.85493C30.9214 7.14797 33.8225 5.42883 36.1948 5.61262C36.9881 5.67771 37.674 6.10653 37.8312 6.86463C37.9481 7.46733 37.8228 8.0918 37.4824 8.60292C37.1605 8.9858 36.44 9.11598 35.8728 9.25382C34.7231 9.53715 33.9567 10.2723 33.9567 11.1912C34.0124 11.7036 34.2557 12.1774 34.6398 12.5216C35.0239 12.8658 35.5217 13.056 36.0376 13.0558C39.8048 13.0979 43.572 13.0865 47.3393 13.0558C47.4999 13.0147 47.6477 12.9339 47.7689 12.8209C47.8901 12.7078 47.9809 12.5661 48.0329 12.4088C48.5656 7.13648 44.8406 3.72119 40.2762 3.67524C30.7949 3.57952 21.3137 3.60249 11.8324 3.69438C10.4118 3.73474 9.01945 4.1002 7.76244 4.76262C4.88434 6.29415 3.75379 8.86328 3.93008 12.0871C3.97223 12.8261 4.14469 13.0826 4.915 13.075C8.4561 13.0367 12.001 13.075 15.5421 13.052C15.8615 13.0497 16.1793 13.0086 16.4887 12.9295C16.9093 12.8378 17.2877 12.6097 17.565 12.2807C17.8422 11.9518 18.0028 11.5404 18.0217 11.1108C18.0169 10.6754 17.853 10.2568 17.5607 9.93383C17.2685 9.61084 16.8682 9.40575 16.4351 9.35719C14.9021 9.2117 13.3692 9.21936 11.8631 9.18107C10.6789 9.15044 9.85108 8.48806 9.82426 7.50405C9.7936 6.37838 10.5907 5.58965 11.8477 5.58965C13.35 5.5705 14.8523 5.53604 16.3508 5.58965C17.2979 5.61309 18.2245 5.87003 19.0482 6.33762C19.872 6.80522 20.5673 7.46896 21.0722 8.26981C22.862 10.95 21.8617 14.4265 18.9261 15.87C18.6165 15.9785 18.3534 16.1896 18.1805 16.4683C18.0076 16.7469 17.9353 17.0762 17.9757 17.4015C18.0255 19.8558 18.0063 22.3139 17.9757 24.7682C17.9605 25.0327 18.0144 25.2967 18.1319 25.5343C18.2495 25.7719 18.4267 25.9749 18.6464 26.1236C20.85 27.9001 22.199 30.1668 21.8732 33.0767C21.7237 34.4244 21.1681 35.73 20.781 37.0969L31.4235 37.1084ZM42.9205 27.9193C41.4834 27.9193 40.0463 27.9001 38.6091 27.9193C37.6168 27.9789 36.6649 28.3339 35.8761 28.9384C35.0873 29.543 34.4976 30.3695 34.1828 31.3116C33.6424 33.0499 34.3514 34.9681 35.9495 36.178C37.1413 37.0778 38.5095 37.1276 39.9351 37.2156C44.0933 37.4722 48.5848 34.0032 48.1134 28.8344C48.0483 28.126 47.8298 27.8886 47.1361 27.904C45.7182 27.9384 44.3117 27.9154 42.9052 27.9154L42.9205 27.9193ZM9.14593 27.8427V27.9193C7.68197 27.9193 6.21417 27.8963 4.7502 27.9422C4.4896 27.9422 4.05271 28.1988 4.00672 28.4055C3.37438 31.2159 5.15644 34.7078 7.72795 36.1627C9.60964 37.2195 11.614 37.3113 13.6566 37.1697C14.787 37.0387 15.8384 36.5251 16.636 35.7143C17.4336 34.9035 17.9294 33.8443 18.0408 32.7129C18.1788 30.7334 16.5424 28.5012 14.3541 28.1184C12.6487 27.8159 10.8743 27.9154 9.1306 27.8389L9.14593 27.8427ZM43.1122 16.6626C41.7095 16.6626 40.3069 16.6817 38.8966 16.6626C38.3102 16.6626 38.0266 16.8157 38.0381 17.4666C38.0688 19.4078 38.0649 21.3529 38.0381 23.2941C38.0381 23.9335 38.2412 24.213 38.9196 24.2092C41.6904 24.1862 44.465 24.19 47.2358 24.2092C47.849 24.2092 48.0981 23.9832 48.0904 23.3668C48.0725 21.3937 48.0725 19.4193 48.0904 17.4436C48.0904 16.8578 47.8758 16.6587 47.3048 16.6779C45.9021 16.674 44.4995 16.6587 43.0968 16.6587L43.1122 16.6626ZM13.9479 16.7391H3.98373C3.98373 19.0747 3.98373 21.3337 4.01439 23.5889C4.01439 23.7918 4.42445 24.1555 4.64673 24.1594C7.5491 24.1977 10.4528 24.1977 13.3577 24.1594C13.5608 24.1594 13.9364 23.8224 13.9402 23.6387C13.9479 21.349 13.9325 19.0632 13.9325 16.7353L13.9479 16.7391Z" fill="#D7D6D6"/>
<g clip-path="url(#clip0_544_959)">
<path opacity="0.8" d="M83.1747 41C83.8459 40.8269 84.4134 40.5096 84.7557 39.8904C85.186 39.1071 85.6282 38.3282 86.0235 37.5235C87.5142 34.5079 88.6001 31.3117 89.2534 28.0163C89.5741 26.3982 89.7893 24.7614 89.8977 23.1159C90.0044 21.5455 90.0469 19.9752 89.9328 18.4078C89.8381 17.0941 89.6867 15.7826 89.5017 14.4778C89.1042 11.6826 88.3309 8.98122 87.2987 6.35312C86.5898 4.54459 85.7403 2.79341 84.7579 1.11541C84.4126 0.523664 83.907 0.153818 83.2179 0.044345C83.1829 0.0339345 83.1495 0.0187501 83.1187 -0.000774663H82.5035C82.0463 0.127931 81.6086 0.295102 81.2648 0.639795C80.5436 1.36838 80.4049 2.42983 80.9337 3.33816C82.3005 5.68645 83.3795 8.18829 84.1479 10.7905C84.6102 12.3603 84.9613 13.9602 85.1987 15.5785C85.5345 17.8077 85.6417 20.0649 85.5186 22.3155C85.2121 27.7559 83.7206 32.8627 80.9739 37.5863C80.1409 39.0184 80.9463 40.7522 82.4878 40.9689C82.5142 40.9765 82.5394 40.988 82.5624 41.0029L83.1747 41Z" fill="#D7D6D6"/>
<path opacity="0.8" d="M80.775 20.6448C80.7966 16.9404 80.1414 13.2627 78.8412 9.78992C78.2362 8.16745 77.4914 6.59968 76.6151 5.10402C76.3825 4.71728 76.0368 4.40989 75.6238 4.22267C75.2109 4.03546 74.7503 3.97729 74.3032 4.05589C73.4128 4.21862 72.7081 4.94351 72.5358 5.83113C72.4351 6.35244 72.5323 6.89225 72.8087 7.34675C74.2889 9.90408 75.329 12.6882 75.8865 15.5846C76.2608 17.4879 76.415 19.4273 76.3459 21.3653C76.1803 25.5815 75.0938 29.5491 73.0384 33.252C72.8393 33.6107 72.6439 33.9917 72.5522 34.3837C72.3195 35.3882 72.9303 36.4548 73.8871 36.8247C74.9066 37.2123 76.0707 36.8335 76.6062 35.9149C78.2526 33.1037 79.4358 30.0498 80.1112 26.8685C80.5508 24.8226 80.7733 22.7367 80.775 20.6448Z" fill="#D7D6D6"/>
<path opacity="0.8" d="M71.9608 20.0115C71.9534 16.5549 70.925 12.7123 68.8905 9.13443C68.6623 8.73405 68.3136 8.41444 67.8932 8.22028C67.4728 8.02612 67.0017 7.96712 66.5459 8.05153C65.692 8.19502 64.9462 8.92066 64.7851 9.80014C64.6862 10.35 64.7922 10.9168 65.0834 11.3949C66.1747 13.3008 66.918 15.383 67.2789 17.5454C67.5588 19.1772 67.615 20.839 67.446 22.4857C67.1907 25.0937 66.3863 27.6194 65.0849 29.8996C64.539 30.8612 64.6606 31.8968 65.3832 32.6202C66.4191 33.6476 68.1023 33.4567 68.8473 32.2037C69.932 30.3601 70.7426 28.3708 71.2539 26.2973C71.7274 24.4481 71.9608 22.5693 71.9608 20.0115Z" fill="#D7D6D6"/>
<path opacity="0.8" d="M63.439 20.8177C63.4203 17.637 62.6082 15.0334 61.0279 12.659C60.4865 11.8453 59.3529 11.4925 58.4371 11.8498C57.4281 12.2433 56.8322 13.2396 57.0418 14.2493C57.1078 14.5806 57.2325 14.8977 57.4102 15.1857C58.5371 16.941 59.0882 18.8524 58.9994 20.9272C58.9339 22.6672 58.3813 24.3548 57.4035 25.801C56.6689 26.8964 56.9851 28.2552 57.9859 28.9224C58.9867 29.5896 60.3828 29.3056 61.0436 28.3233C62.2327 26.5583 63.0054 24.55 63.304 22.448C63.3927 21.7978 63.4129 21.1446 63.439 20.8177Z" fill="#D7D6D6"/>
</g>
<defs>
<clipPath id="clip0_544_959">
<rect width="33" height="41" fill="white" transform="matrix(1 0 0 -1 57 41)"/>
</clipPath>
</defs>
</svg>
